# xmcd
#
# Track frame offsets:
#	150
#	15101
#	44734
#	60173
#	73426
#	88945
#	108512
#	132926
#	149053
#	167129
#	185109
#	200340
#
# Disc length: 2818 seconds
#
# Revision: 1
# Processed by: cddbd v1.5.2PL0 Copyright (c) Steve Scherf et al.
# Submitted via: audiograbber 1.83.01
#
DISCID=b60b000c
DTITLE=Various Artist - CDX 038
DYEAR=1992
DGENRE=Country
TTITLE0=Shucks - After All
TTITLE1=Brooks and Dunn - Boot Scootin' Boogie [Dance Mix]
TTITLE2=Billy Dean - If There Hadn't Been You
TTITLE3=Mike Reid - Keep On Walkin'
TTITLE4=Cimmaron - Long Ride Back
TTITLE5=Travis Tritt - Lord Have Mercy On The Working Man
TTITLE6=Roy Caldwell - Midnight Promises
TTITLE7=Dennis Robbins - My Side Of Town
TTITLE8=Wynonna Judd - No One Else On Earth
TTITLE9=Darryl and Don Ellis - No Sir
TTITLE10=Mac McAnally - The Trouble With Diamonds
TTITLE11=Neal McCoy - There Ain't Nothin' I Don't Like About You
EXTD=
EXTT0=
EXTT1=
EXTT2=
EXTT3=
EXTT4=
EXTT5=
EXTT6=
EXTT7=
EXTT8=
EXTT9=
EXTT10=
EXTT11=
PLAYORDER=
